# xmcd
#
# Track frame offsets:
#	150
#	16288
#	32315
#	49888
#	65588
#	81687
#	99013
#	117081
#	134514
#	150263
#	166323
#	186864
#
# Disc length: 3091 seconds
#
# Revision: 1
# Processed by: cddbd v1.5.2PL0 Copyright (c) Steve Scherf et al.
# Submitted via: audiograbber 1.83.01
#
DISCID=910c110c
DTITLE=Casey Donahew Band - Moving On
DYEAR=2009
DGENRE=Country
TTITLE0=Ramblin' Kind
TTITLE1=Next Time
TTITLE2=Breaks My Heart
TTITLE3=California
TTITLE4=Nowhere Faster
TTITLE5=Let Me Love You
TTITLE6=Burn This House Down
TTITLE7=Break Me Down
TTITLE8=Strong Enough
TTITLE9=Broken
TTITLE10=Angel
TTITLE11=Moving On
EXTD=
EXTT0=
EXTT1=
EXTT2=
EXTT3=
EXTT4=
EXTT5=
EXTT6=
EXTT7=
EXTT8=
EXTT9=
EXTT10=
EXTT11=
PLAYORDER=
